<svg width="424" height="137" viewBox="0 0 424 137" fill="none" xmlns="http://www.w3.org/2000/svg">
<path d="M44.9751 0L21.5083 135H0.766113L24.2329 0H44.9751ZM96.1274 39.9023L48.4028 85.4297L21.4204 109.424L18.9595 90.0879L38.647 69.5215L69.5845 39.9023H96.1274ZM58.9497 135L36.2739 89.4727L51.0396 75.4102L81.7134 135H58.9497Z" fill="black"/>
<path d="M119.517 39.9023L102.993 135H82.3392L98.8626 39.9023H119.517ZM101.763 15.293C101.704 11.8945 102.818 9.11133 105.103 6.94336C107.388 4.77539 110.2 3.66211 113.54 3.60352C116.763 3.54492 119.517 4.54102 121.802 6.5918C124.146 8.58398 125.318 11.25 125.318 14.5898C125.376 17.9883 124.234 20.7422 121.89 22.8516C119.605 24.9609 116.822 26.0449 113.54 26.1035C110.318 26.1621 107.564 25.2246 105.279 23.291C102.993 21.2988 101.822 18.6328 101.763 15.293Z" fill="black"/>
<path d="M174.459 114.082L194.234 0H215.065L191.598 135H172.965L174.459 114.082ZM118.912 89.209L119.088 87.3633C119.85 81.5039 121.227 75.6445 123.219 69.7852C125.27 63.9258 128.024 58.5645 131.481 53.7012C134.996 48.8379 139.274 44.9707 144.313 42.0996C149.41 39.2285 155.387 37.8809 162.242 38.0566C168.219 38.2324 173.199 39.7852 177.184 42.7148C181.168 45.6445 184.274 49.4238 186.5 54.0527C188.785 58.6816 190.338 63.6914 191.158 69.082C191.979 74.4141 192.242 79.6289 191.949 84.7266L191.246 90.7031C190.309 96.0938 188.727 101.543 186.5 107.051C184.274 112.559 181.373 117.598 177.799 122.168C174.283 126.738 170.065 130.371 165.143 133.066C160.279 135.762 154.713 137.021 148.443 136.846C142.174 136.611 136.988 135.029 132.887 132.1C128.785 129.111 125.621 125.273 123.395 120.586C121.168 115.84 119.733 110.742 119.088 105.293C118.443 99.7852 118.385 94.4238 118.912 89.209ZM140.006 87.1875L139.83 89.0332C139.479 92.0801 139.332 95.332 139.391 98.7891C139.449 102.246 139.918 105.557 140.797 108.721C141.734 111.826 143.287 114.404 145.455 116.455C147.682 118.506 150.787 119.619 154.772 119.795C159.4 119.971 163.502 118.916 167.076 116.631C170.709 114.346 173.727 111.357 176.129 107.666C178.531 103.975 180.231 100.049 181.227 95.8887L183.688 79.8047C183.863 76.875 183.658 73.9746 183.072 71.1035C182.545 68.2324 181.578 65.625 180.172 63.2812C178.766 60.9375 176.891 59.0332 174.547 57.5684C172.262 56.0449 169.479 55.2539 166.197 55.1953C161.861 55.0195 158.111 55.8984 154.947 57.832C151.842 59.7656 149.264 62.3438 147.213 65.5664C145.221 68.7891 143.639 72.3047 142.467 76.1133C141.295 79.9219 140.475 83.6133 140.006 87.1875Z" fill="black"/>
<path d="M206.55 89.0332L206.813 87.0117C207.517 80.4492 209.128 74.209 211.647 68.291C214.167 62.373 217.507 57.1289 221.667 52.5586C225.886 47.9297 230.837 44.3262 236.52 41.748C242.263 39.1699 248.649 37.9688 255.681 38.1445C262.477 38.2617 268.308 39.668 273.171 42.3633C278.093 45.0586 282.077 48.6621 285.124 53.1738C288.229 57.627 290.397 62.7246 291.628 68.4668C292.858 74.1504 293.181 80.0977 292.595 86.3086L292.419 88.3301C291.657 94.8926 289.987 101.104 287.409 106.963C284.89 112.822 281.52 118.037 277.302 122.607C273.142 127.119 268.19 130.664 262.448 133.242C256.765 135.762 250.436 136.934 243.464 136.758C236.725 136.641 230.895 135.264 225.974 132.627C221.11 129.932 217.126 126.357 214.02 121.904C210.974 117.451 208.835 112.412 207.604 106.787C206.374 101.104 206.022 95.1855 206.55 89.0332ZM227.38 87.0117L227.204 89.0332C226.911 92.2559 226.882 95.6543 227.116 99.2285C227.35 102.803 228.054 106.143 229.225 109.248C230.397 112.354 232.214 114.902 234.675 116.895C237.136 118.887 240.417 119.941 244.518 120.059C248.854 120.176 252.634 119.297 255.856 117.422C259.079 115.547 261.774 113.027 263.942 109.863C266.11 106.699 267.839 103.242 269.128 99.4922C270.417 95.6836 271.267 91.9629 271.677 88.3301L271.852 86.3086C272.204 83.1445 272.263 79.7754 272.028 76.2012C271.794 72.5684 271.091 69.1699 269.919 66.0059C268.747 62.7832 266.931 60.1758 264.47 58.1836C262.009 56.1328 258.727 55.0488 254.626 54.9316C250.231 54.8145 246.423 55.7227 243.2 57.6562C239.977 59.5312 237.282 62.0801 235.114 65.3027C232.946 68.5254 231.218 72.041 229.929 75.8496C228.698 79.6582 227.849 83.3789 227.38 87.0117Z" fill="black"/>
<path d="M319.412 112.939L353.074 39.9023H366.961L359.05 63.0176L325.476 135H313.084L319.412 112.939ZM319.5 39.9023L323.279 115.488L321.17 135H308.25L299.812 39.9023H319.5ZM373.992 112.324L402.381 39.9023H423.123L381.726 135H368.015L373.992 112.324ZM368.631 39.9023L377.068 114.258L375.925 135H364.588L355.359 60.9082L355.623 39.9023H368.631Z" fill="black"/>
</svg>
